<svg id="Layer_1" fill="00ffff" data-name="Layer 1" xmlns="http://www.w3.org/2000/svg" viewBox="0 0 593.29 606.84"><defs><style>.cls-1,.cls-2{fill:none;stroke:#231f20;stroke-miterlimit:10;}.cls-1{stroke-width:16px;}.cls-2{stroke-width:10px;}</style></defs><title>Logo</title><path class="cls-1" d="M359.78,216.69c0,79.56-65.48,144.68-144.28,144.28-80.34-.4-142.63-68.75-142.66-144.28,0-82.16,73.6-146.48,142.66-144.28,36.79,1.17,82.95,21.55,95.65,58.36,21,61-54.64,152.63-131.31,150.77-38.4-.93-67-25.09-79.44-37.29" transform="translate(-62.83 -49.17)"/><path class="cls-1" d="M70.83,523.37c.44,67.74,65.07,123.27,143.47,123.27s143-55.53,143.47-123.27l.68-124.26,1-188.11" transform="translate(-62.83 -49.17)"/><circle class="cls-2" cx="297.17" cy="22.83" r="17.83"/><path class="cls-1" d="M359.78,216.69C359.49,137.18,424.88,71.79,504,72c91.86.25,151.7,88.8,143.35,144-11.18,73.9-144.21,85.44-144.29,143.69S636.26,429.88,647.35,504c8.28,55.29-51.7,143.45-143.35,144-79.07.48-144.82-64.46-145.22-144" transform="translate(-62.83 -49.17)"/></svg>