<svg id="Layer_2" data-name="Layer 2" xmlns="http://www.w3.org/2000/svg" viewBox="0 0 576 596.5"><defs><style>.cls-1{fill:#d77b28;}.cls-2{fill:#d1202a;}.cls-3{fill:none;stroke:#231f20;stroke-miterlimit:10;stroke-width:5px;}.cls-4{fill:#f4cf1b;}.cls-5{fill:#006838;}.cls-6{fill:#00a79d;}.cls-7{fill:#2e3192;}.cls-8{fill:#1798c4;}.cls-9{fill:#fff;}</style></defs><title>Logo2</title><circle class="cls-1" cx="144" cy="164.5" r="144"/><path class="cls-2" d="M72,216a143.48,143.48,0,0,0,12.73,59.27A144.07,144.07,0,0,0,275.27,84.73,144.07,144.07,0,0,0,72,216Z" transform="translate(-72 -51.5)"/><circle class="cls-3" cx="288" cy="20.5" r="18"/><path class="cls-4" d="M216,360V504H72A144,144,0,1,0,216,360Z" transform="translate(-72 -51.5)"/><circle class="cls-5" cx="432" cy="164.5" r="144"/><path class="cls-6" d="M648,216A144,144,0,0,0,504,360,144,144,0,0,0,648,216Z" transform="translate(-72 -51.5)"/><circle class="cls-7" cx="432" cy="452.5" r="144"/><path class="cls-8" d="M648,504A144,144,0,0,1,504,360,144,144,0,0,1,648,504Z" transform="translate(-72 -51.5)"/><rect class="cls-9" x="273.09" y="56.5" width="29.81" height="504"/></svg>